<svg width="488" height="643" viewBox="0 0 488 643" fill="none" xmlns="http://www.w3.org/2000/svg">
<path d="M230.21 204.677L128.541 201.381V237.63L154.778 273.878H207.252L230.21 227.744H263.006L282.684 273.878H338.438L358.116 237.63V201.381L263.006 204.677H230.21Z" fill="white" stroke="white"/>
<path d="M228.395 347.843L252.917 434.675L257.376 314.447L306.422 309.994C335.404 296.635 391.138 275.261 382.22 296.635C373.303 318.009 378.505 363.428 382.22 383.467L455.789 421.316L487 641.735H1L34.4404 416.863C63.422 402.762 123.615 372.78 132.532 365.655C141.45 358.53 128.817 307.767 121.385 283.276L228.395 347.843Z" fill="white" stroke="white"/>
<path d="M170.16 18.7956L154.721 97.3343C120.038 95.9917 50.6738 101.899 50.6738 136.268C50.6738 170.637 179.558 179.677 244 179.901V12.7541L235.273 16.1105L227.218 12.7541C222.967 6.48895 211.242 0 198.353 0C185.465 0 174.188 12.5304 170.16 18.7956Z" fill="white"/>
<path d="M317.84 18.7956L333.279 97.3343C367.962 95.9917 437.326 101.899 437.326 136.268C437.326 170.637 308.442 179.677 244 179.901V12.7541L252.727 16.1105L260.782 12.7541C265.033 6.48895 276.758 0 289.647 0C302.535 0 313.812 12.5304 317.84 18.7956Z" fill="white"/>
</svg>
